<?xml version="1.0" standalone="no"?>
<!DOCTYPE svg PUBLIC "-//W3C//DTD SVG 20010904//EN"
 "http://www.w3.org/TR/2001/REC-SVG-20010904/DTD/svg10.dtd">
<svg version="1.0" xmlns="http://www.w3.org/2000/svg"
 width="573.000000pt" height="573.000000pt" viewBox="0 0 573.000000 573.000000"
 preserveAspectRatio="xMidYMid meet">
<metadata>
Created by potrace 1.14, written by Peter Selinger 2001-2017
</metadata>
<g transform="translate(0.000000,573.000000) scale(0.100000,-0.100000)"
fill="#000000" stroke="none">
<path d="M2679 5426 c-2 -2 -38 -7 -79 -10 -41 -3 -86 -8 -100 -10 -14 -3 -42
-7 -63 -10 -220 -33 -507 -126 -722 -234 -621 -310 -1084 -847 -1299 -1505
-40 -121 -91 -343 -101 -437 -4 -36 -9 -74 -12 -85 -9 -36 -11 -483 -3 -522 5
-21 10 -68 12 -105 2 -38 7 -68 12 -68 4 0 6 -9 3 -20 -3 -11 -2 -22 3 -25 4
-3 7 -20 5 -40 -1 -19 1 -32 5 -30 4 3 10 -9 12 -25 3 -17 0 -30 -6 -30 -6 0
-4 -5 4 -10 8 -5 11 -10 5 -10 -6 0 -6 -3 1 -8 16 -11 27 -75 11 -67 -6 4 -4
0 6 -8 10 -8 19 -26 21 -38 1 -13 8 -37 15 -54 20 -50 21 -54 15 -69 -3 -8
-13 -12 -22 -9 -14 4 -15 3 -2 -5 9 -7 18 -8 26 -1 9 7 12 4 10 -15 -2 -14 0
-23 5 -21 4 3 10 1 14 -5 3 -5 -2 -10 -12 -11 -11 0 -13 -3 -5 -6 6 -2 9 -10
5 -16 -4 -7 2 -5 12 3 12 10 16 10 11 2 -4 -7 -2 -19 4 -27 7 -8 9 -15 5 -15
-5 0 0 -9 10 -20 10 -11 14 -20 9 -20 -5 0 -2 -5 6 -10 11 -7 11 -10 2 -10 -7
0 -10 -5 -6 -12 4 -6 3 -8 -4 -4 -6 3 -14 1 -18 -5 -4 -8 -3 -9 4 -5 7 4 12 2
12 -5 0 -9 3 -9 14 0 11 9 16 9 22 0 5 -8 3 -9 -5 -4 -9 5 -12 2 -9 -11 2 -11
10 -18 16 -17 7 2 12 -2 12 -7 0 -14 -11 -12 -30 5 -14 13 -16 12 -16 -4 0
-10 6 -17 12 -14 7 2 15 -1 19 -6 3 -6 11 -8 17 -5 7 4 8 2 4 -4 -4 -6 -14 -9
-24 -6 -12 4 -11 2 3 -7 27 -16 34 -29 30 -51 -4 -16 6 -23 28 -19 5 1 6 -3 3
-8 -4 -5 -1 -11 6 -13 8 -3 6 -7 -5 -11 -10 -4 -16 -2 -14 5 1 6 -5 13 -13 15
-13 4 -13 3 0 -6 13 -10 13 -11 0 -11 -13 0 -13 -2 0 -9 8 -6 18 -7 22 -5 4 3
8 -2 8 -11 0 -9 -4 -14 -8 -11 -5 3 -9 -1 -9 -9 0 -22 13 -18 24 7 l10 22 5
-22 c4 -12 2 -20 -3 -16 -5 3 -9 2 -10 -3 0 -4 -2 -16 -4 -25 -2 -10 2 -16 8
-15 7 1 11 -7 9 -18 -2 -16 -1 -17 7 -5 7 10 5 20 -6 32 -24 27 -7 21 21 -7
17 -17 23 -32 20 -50 -3 -20 0 -25 16 -25 20 0 22 -3 24 -50 0 -14 4 -25 7
-25 4 0 16 -8 26 -18 11 -9 23 -14 28 -10 4 5 0 -5 -10 -20 -10 -15 -15 -30
-11 -34 3 -3 6 -1 6 5 0 6 10 16 23 22 19 9 20 9 6 -2 -18 -16 -20 -78 -2 -71
7 3 11 8 8 12 -2 4 2 8 9 8 8 0 11 -8 8 -20 -4 -16 -1 -18 19 -13 13 3 18 3
11 0 -6 -3 -9 -11 -6 -16 4 -6 2 -8 -4 -4 -6 3 -14 2 -17 -4 -4 -6 -3 -10 2
-9 21 4 24 -2 12 -18 -13 -17 -13 -17 5 -3 18 14 18 13 12 -10 -5 -18 -5 -21
3 -10 9 12 11 12 17 -3 3 -9 10 -17 15 -17 5 0 0 13 -12 30 -13 16 -20 33 -16
36 4 4 10 -2 14 -12 3 -10 15 -26 25 -36 14 -12 16 -17 6 -21 -10 -4 -10 -6 0
-6 6 -1 12 -13 12 -27 0 -14 4 -23 10 -19 5 3 7 13 4 23 -5 14 -4 14 4 3 7
-10 7 -21 1 -33 -12 -22 -6 -23 15 -3 13 14 15 13 13 -4 0 -11 -4 -18 -8 -15
-4 2 -10 0 -13 -5 -7 -11 13 -9 32 2 7 5 9 13 6 19 -5 7 -2 8 5 3 9 -5 10 -10
2 -18 -14 -14 -14 -37 -1 -37 5 0 9 3 7 8 -1 4 1 8 6 10 16 5 19 1 7 -13 -9
-10 -9 -15 -1 -15 6 0 11 -5 11 -12 0 -9 -3 -9 -12 0 -15 15 -28 15 -28 1 0
-5 4 -8 9 -5 11 7 43 -28 34 -37 -3 -4 -1 -7 6 -7 8 0 11 6 7 17 -6 16 -6 16
12 0 10 -9 22 -14 26 -10 4 4 4 -1 0 -11 -5 -14 -9 -15 -15 -4 -5 8 -9 9 -9 2
0 -20 24 -34 40 -24 25 16 35 11 14 -6 -18 -15 -18 -15 4 -11 20 5 21 3 10
-11 -7 -9 -8 -13 -3 -10 6 4 19 -1 30 -9 20 -15 20 -15 -2 -9 -12 4 -24 2 -28
-3 -3 -7 0 -8 10 -5 10 4 14 1 12 -7 -2 -8 -2 -11 0 -6 3 4 11 7 19 7 8 0 14
5 14 12 0 6 3 8 6 5 4 -4 1 -13 -6 -22 -10 -12 -10 -15 0 -15 10 0 10 -3 1
-14 -9 -11 -9 -16 0 -22 7 -4 9 -3 5 4 -3 6 -2 13 4 17 6 4 8 10 5 15 -3 4 1
10 8 13 8 3 12 -6 12 -27 0 -20 4 -30 13 -28 9 2 12 -4 7 -17 -3 -11 -1 -22 4
-26 7 -4 8 0 5 10 -5 13 -1 15 20 12 15 -1 26 -6 26 -10 0 -4 0 -10 0 -13 0
-4 -7 -1 -15 6 -13 11 -14 10 -9 -4 7 -18 44 -22 44 -4 0 6 3 8 6 5 4 -4 1
-13 -6 -21 -6 -9 -10 -21 -7 -28 3 -8 6 -6 6 5 1 10 6 15 11 12 6 -4 7 -12 4
-18 -5 -8 -3 -8 7 1 21 20 28 14 24 -19 -2 -17 -1 -29 2 -25 3 3 14 1 24 -4
12 -7 20 -6 25 2 5 7 3 8 -6 3 -9 -6 -11 -4 -6 4 5 8 3 11 -6 9 -7 -2 -14 2
-14 7 0 16 29 5 44 -16 7 -11 18 -17 23 -13 5 3 8 2 7 -3 -2 -4 1 -9 5 -10 5
-1 18 -12 29 -25 11 -13 25 -22 30 -20 5 1 7 -2 3 -8 -9 -14 8 -13 23 2 8 8
12 8 12 1 0 -30 -35 -20 -86 23 -30 26 -54 42 -54 36 0 -5 7 -13 16 -16 9 -3
12 -11 8 -18 -4 -7 -4 -10 1 -6 4 4 14 0 21 -10 7 -9 18 -17 26 -17 7 -1 12
-6 11 -13 -2 -7 0 -11 5 -11 4 1 20 1 35 0 20 -1 26 -5 21 -13 -5 -8 0 -7 11
2 11 9 16 10 11 2 -4 -6 -2 -12 3 -12 6 0 10 -5 8 -11 -1 -6 5 -14 13 -16 12
-4 13 -3 1 5 -10 7 -6 9 16 9 27 -2 29 -5 28 -35 -1 -30 1 -31 12 -16 13 17
43 29 42 16 -3 -18 2 -32 11 -32 5 0 8 6 6 13 -1 6 -1 9 1 4 3 -4 9 -5 14 -1
5 3 8 0 7 -8 -2 -7 3 -12 10 -10 8 1 11 -2 8 -7 -4 -5 -2 -13 4 -16 8 -5 7
-12 -2 -23 -12 -15 -11 -16 4 -4 9 8 14 20 11 28 -3 8 0 14 7 14 6 0 9 -4 5
-9 -3 -6 4 -15 15 -21 15 -8 20 -8 20 1 0 7 3 10 6 6 14 -13 -7 -27 -27 -17
-13 7 -19 7 -19 0 0 -9 20 -14 47 -11 8 1 11 -5 8 -16 -3 -10 0 -8 6 4 7 13
16 23 21 23 5 0 4 -9 -2 -21 -7 -11 -9 -23 -6 -27 3 -3 6 0 6 6 0 7 8 12 18
12 15 0 15 -2 2 -11 -12 -8 -10 -9 7 -4 18 5 22 3 17 -9 -3 -9 -1 -16 6 -16 6
0 8 5 5 10 -3 6 -1 10 4 10 6 0 11 -4 11 -8 0 -5 10 -13 23 -19 27 -13 72 1
61 19 -4 7 -3 9 1 5 11 -9 16 -39 6 -33 -4 3 -13 1 -21 -4 -12 -8 -13 -11 -2
-22 11 -11 13 -11 10 1 -6 26 37 21 56 -7 10 -15 15 -19 12 -9 -3 11 0 17 9
17 8 0 15 5 15 12 0 6 3 8 6 5 4 -4 2 -13 -5 -21 -9 -11 -8 -15 3 -19 9 -4 18
-1 22 5 5 7 2 8 -7 3 -8 -5 -11 -4 -6 1 4 4 18 9 31 10 19 1 22 -3 18 -20 -5
-18 -7 -18 -10 -3 -2 9 -8 15 -13 11 -15 -9 10 -34 26 -27 10 3 13 -1 11 -14
-3 -13 2 -19 16 -19 17 0 17 2 4 12 -14 10 -14 13 -2 23 11 9 16 9 22 0 5 -8
3 -9 -6 -4 -8 5 -11 4 -6 -3 10 -17 35 -3 30 16 -4 13 -3 13 6 -2 9 -13 9 -20
2 -25 -7 -4 -3 -12 9 -20 16 -9 19 -10 13 0 -5 9 -2 10 12 5 10 -4 25 -9 32
-10 8 -1 18 -9 23 -17 7 -11 9 -11 9 -1 0 7 5 10 12 6 7 -4 8 -3 4 5 -4 6 -12
9 -17 6 -5 -3 -6 1 -3 10 5 13 9 12 25 -6 10 -12 16 -26 12 -32 -3 -6 -1 -7 6
-3 6 4 9 16 6 26 -3 10 -1 21 4 25 7 4 8 -1 4 -11 -4 -12 -3 -15 5 -10 15 9
15 1 2 -25 -6 -10 -8 -19 -6 -19 3 0 12 12 20 28 8 15 15 21 16 15 0 -17 30
-17 30 -1 0 7 7 2 16 -10 9 -13 20 -19 27 -15 7 4 23 8 37 8 14 0 32 4 40 10
13 8 13 7 0 -10 -14 -17 -13 -18 2 -12 22 8 34 -11 18 -26 -10 -9 -12 -8 -7 6
4 11 3 16 -3 12 -6 -3 -16 -3 -22 2 -18 11 -52 10 -60 -1 -4 -6 -12 -5 -21 2
-11 9 -14 9 -14 -2 0 -9 9 -12 26 -10 48 9 63 5 88 -18 16 -15 24 -18 21 -8
-2 9 4 14 15 14 17 -2 17 -1 1 25 -17 26 -17 26 4 8 20 -18 21 -18 31 0 9 16
10 16 8 -4 0 -12 -4 -20 -7 -18 -4 2 -7 -2 -7 -10 0 -22 15 -18 22 6 6 17 9
19 16 8 5 -8 9 -10 9 -6 0 5 13 0 30 -10 22 -13 33 -14 41 -6 9 9 7 11 -7 9
-10 -2 -13 -1 -6 1 6 3 12 9 12 14 0 5 4 9 9 9 5 0 8 -15 6 -32 -3 -18 -1 -28
3 -22 4 6 39 10 85 9 71 -1 77 1 78 20 0 19 1 19 8 1 4 -11 17 -20 29 -21 28
-2 29 12 2 20 -11 3 -20 11 -20 16 0 5 10 3 23 -4 24 -15 36 -16 54 -4 13 8
37 -26 26 -37 -3 -3 -2 -6 4 -6 5 0 16 11 23 24 14 27 36 40 51 30 5 -3 7 -10
4 -15 -4 -5 -1 -9 4 -9 6 0 11 4 11 8 0 13 36 8 54 -7 14 -12 16 -11 9 5 -6
17 -5 17 10 5 15 -12 17 -12 11 3 -5 12 -2 15 9 10 9 -3 14 -14 12 -25 -2 -11
0 -17 6 -13 6 3 8 9 5 12 -11 10 26 41 42 35 8 -4 13 -2 9 3 -3 6 5 10 19 10
19 0 23 -4 18 -20 -4 -17 -3 -18 5 -6 10 13 11 13 11 0 0 -12 2 -12 9 -2 4 8
11 13 15 12 4 -1 10 0 14 3 4 2 1 2 -6 0 -7 -1 -10 2 -7 7 3 6 14 10 23 10 15
0 15 2 2 10 -9 6 -10 10 -3 10 6 0 14 -4 18 -10 3 -5 12 -7 19 -4 7 3 20 -2
29 -10 13 -14 16 -14 21 0 4 10 1 13 -7 9 -6 -4 -4 0 6 9 11 8 24 13 30 11 36
-13 64 -12 64 1 0 10 -4 11 -14 3 -17 -14 -17 -3 0 15 10 12 14 10 24 -8 8
-14 12 -16 13 -6 0 13 1 13 10 0 7 -11 10 -11 10 -2 0 7 5 10 12 6 6 -4 8 -3
4 4 -3 6 -2 14 4 17 8 5 7 12 -2 23 -12 16 -11 16 6 2 18 -14 19 -13 13 5 -7
19 -6 19 7 2 8 -11 12 -26 9 -35 -4 -15 -3 -15 6 -2 6 8 11 11 11 6 0 -5 9 -1
20 9 15 14 20 15 20 4 0 -12 2 -12 9 0 5 8 16 11 26 7 16 -6 16 -5 1 18 -12
19 -13 27 -3 32 6 4 9 4 5 -1 -11 -12 11 -35 28 -28 7 3 12 9 9 13 -9 14 16
23 28 11 9 -9 7 -11 -8 -5 -16 5 -18 4 -8 -6 12 -13 37 -5 28 10 -3 5 -1 11 5
15 5 3 10 1 10 -4 0 -6 4 -11 9 -11 5 0 7 9 4 20 -5 17 -1 20 18 16 13 -3 25
-5 27 -7 8 -6 30 -4 47 5 11 6 27 9 35 7 8 -2 12 0 9 3 -4 4 -17 9 -29 11 -12
2 -25 6 -27 9 -8 8 51 1 65 -8 8 -4 11 -3 10 5 -2 6 3 14 11 17 10 3 11 0 5
-9 -7 -12 -5 -12 9 0 18 15 23 26 7 16 -6 -3 -10 -1 -10 6 0 8 -3 9 -13 0 -8
-6 -18 -7 -22 -3 -5 4 -5 2 -2 -4 3 -6 0 -11 -8 -11 -18 0 -20 17 -2 18 6 1
15 1 19 1 3 -1 12 5 18 13 11 13 16 12 42 -6 l30 -22 -13 21 c-11 18 -11 24 0
34 12 11 13 10 8 -4 -3 -10 -2 -20 4 -23 5 -4 8 -1 7 6 -4 16 22 19 42 5 13
-9 13 -8 3 5 -14 18 -8 30 12 23 7 -3 15 -1 19 4 6 10 -24 10 -41 -1 -6 -4
-13 0 -17 8 -3 8 0 17 6 21 6 4 8 3 4 -4 -4 -6 1 -10 13 -9 15 1 19 7 16 29
-2 16 0 26 5 23 5 -3 7 -12 4 -20 -3 -8 4 -19 18 -26 22 -12 22 -11 8 6 -14
17 -14 17 7 7 33 -18 38 -14 12 7 l-24 19 26 -5 c16 -3 30 0 34 8 6 8 4 10 -5
4 -9 -6 -11 -4 -5 4 5 9 10 10 18 2 6 -6 7 -15 1 -24 -5 -7 0 -3 11 9 11 12
28 20 38 19 15 -3 16 -1 6 11 -8 9 -16 11 -23 5 -8 -6 -17 -6 -26 1 -12 8 -12
9 3 4 9 -3 17 -2 17 3 0 5 9 11 20 14 10 3 18 2 17 -2 -2 -6 7 -11 18 -11 3 0
1 10 -6 21 -7 14 -7 19 0 15 5 -4 17 6 25 21 8 15 15 22 16 14 0 -10 3 -11 14
-2 11 9 16 9 22 0 5 -8 3 -9 -6 -4 -9 5 -11 4 -6 -4 12 -20 27 -2 16 20 -13
22 -7 25 13 5 11 -12 15 -11 27 8 12 19 11 20 -2 8 -13 -10 -17 -10 -21 1 -4
10 3 13 24 12 27 -2 34 6 31 35 0 3 9 7 21 7 21 2 22 1 3 -13 -11 -8 -15 -14
-9 -14 7 0 20 10 30 23 10 13 23 22 30 20 6 -2 14 1 18 6 4 7 0 8 -11 4 -13
-5 -15 -3 -9 8 5 8 -1 5 -13 -5 -12 -11 -25 -16 -28 -13 -4 4 1 9 10 13 9 3
13 11 9 18 -3 6 -3 8 2 4 4 -4 17 -3 28 3 14 8 18 8 13 0 -5 -7 -1 -8 10 -4
13 5 15 3 9 -7 -6 -9 -4 -11 5 -5 10 6 6 14 -16 33 -21 17 -23 21 -7 13 18 -9
29 -8 52 4 39 19 46 32 30 53 -7 9 -10 14 -5 10 5 -4 15 -1 23 7 8 8 20 15 26
15 7 0 4 -5 -5 -11 -10 -5 -18 -15 -18 -22 0 -7 4 -6 10 3 8 13 11 13 19 1 6
-9 8 -4 8 17 -1 21 -6 28 -17 25 -13 -4 -13 -4 0 6 11 8 18 6 29 -7 13 -16 13
-16 8 1 -6 16 2 21 30 18 6 -1 14 3 18 9 4 6 -1 7 -12 3 -11 -3 -4 8 17 30 19
19 39 32 45 29 5 -3 4 1 -3 10 -11 14 -10 20 8 38 11 11 26 18 33 14 7 -4 3 3
-8 17 -16 18 -16 21 -2 10 9 -8 21 -11 24 -7 11 10 12 37 2 30 -5 -3 -6 -11
-3 -17 4 -7 1 -7 -7 1 -12 11 -11 15 3 23 10 6 15 16 12 27 -5 14 -4 15 5 2
10 -14 16 -7 12 13 -1 5 3 6 9 2 5 -3 10 -1 10 4 0 6 5 11 12 11 6 0 4 -8 -6
-19 -14 -15 -15 -21 -4 -27 7 -4 10 -4 6 1 -4 4 0 14 8 22 10 10 11 19 5 27
-6 8 -6 17 1 26 8 13 9 12 5 -1 -4 -13 -1 -15 15 -11 13 3 16 7 8 12 -10 6
-10 14 1 38 12 27 14 28 25 14 10 -14 12 -14 11 -2 -2 8 -6 21 -11 28 -7 11
-4 12 12 3 16 -8 24 -7 39 7 10 9 13 13 6 9 -8 -6 -19 -3 -30 8 -16 17 -16 17
5 11 17 -6 21 -4 16 8 -4 11 0 14 15 11 25 -5 26 -2 4 16 -15 12 -16 12 -8 -1
7 -12 6 -13 -7 -3 -8 7 -19 9 -23 5 -5 -4 -5 -2 -1 5 3 6 15 10 26 8 20 -4 24
6 22 50 0 11 2 14 4 7 3 -6 10 -9 16 -6 6 4 5 -3 -1 -15 -9 -17 -9 -21 1 -19
7 2 12 -3 10 -10 -1 -8 2 -11 8 -7 7 4 8 11 2 18 -6 7 -9 23 -8 37 1 20 6 25
26 23 l25 -3 -27 16 c-34 18 -35 23 -4 17 13 -3 27 1 31 8 6 8 4 11 -7 7 -19
-8 -45 7 -29 16 6 4 11 2 11 -4 0 -6 5 -8 12 -4 7 5 5 11 -8 21 -19 14 -19 14
1 11 16 -2 19 2 18 20 -2 19 -1 21 11 10 9 -8 11 -17 5 -24 -5 -6 -5 -15 -1
-19 4 -5 1 -5 -7 0 -10 5 -12 4 -7 -4 4 -6 12 -9 17 -5 5 3 7 9 4 14 -3 5 -1
12 5 15 8 5 5 16 -6 33 l-17 27 23 -20 c13 -11 20 -15 17 -8 -4 6 0 19 9 27 8
9 11 16 5 16 -5 0 -13 -5 -16 -10 -8 -13 -35 6 -35 23 0 6 7 2 16 -9 15 -18
15 -18 11 4 -4 15 0 25 9 29 8 3 13 12 10 20 -4 8 -1 11 5 7 8 -4 9 1 4 17 -3
13 -3 20 2 14 4 -5 18 -10 30 -11 16 0 20 3 13 11 -5 7 -7 15 -3 18 3 4 1 7
-5 7 -5 0 -12 -6 -15 -12 -3 -7 -4 -3 -4 9 1 12 4 20 8 17 4 -2 10 0 14 6 3 5
0 10 -7 10 -9 0 -9 3 2 10 20 13 39 12 20 -1 -13 -9 -13 -10 0 -6 8 2 14 10
12 17 -1 7 2 18 8 24 5 7 7 16 3 20 -16 15 -13 46 5 46 13 0 14 -2 4 -9 -11
-6 -10 -10 4 -15 10 -4 15 -4 12 0 -4 4 -3 15 3 25 7 15 6 17 -6 13 -11 -5
-13 -2 -9 10 3 9 11 13 17 9 6 -4 7 -1 3 6 -5 7 -14 10 -22 7 -7 -3 -16 0 -20
6 -4 6 -3 8 4 4 6 -3 17 1 25 9 19 19 34 20 18 2 -8 -10 -7 -14 3 -14 10 0 12
9 9 31 -5 33 -20 49 -37 39 -5 -3 -6 -1 -2 5 4 6 14 8 23 5 11 -4 14 -3 9 6
-4 7 -3 10 5 9 6 -2 14 3 17 11 2 8 0 11 -5 8 -5 -3 -10 0 -10 7 0 8 8 12 21
9 12 -3 17 -1 11 4 -6 4 -12 18 -12 31 -2 20 1 22 13 11 12 -10 12 -14 2 -20
-9 -6 -9 -9 -1 -9 16 0 26 17 13 25 -14 9 -13 45 2 45 6 0 3 7 -8 15 -19 15
-19 16 1 13 11 -2 24 -7 28 -13 5 -6 7 -5 5 3 -2 8 -7 13 -12 12 -5 -1 -12 4
-17 11 -6 10 -11 10 -26 -2 -16 -12 -17 -12 -6 2 7 9 9 19 5 23 -4 4 5 2 21
-5 22 -10 30 -10 40 0 9 10 8 11 -6 5 -19 -7 -21 14 -2 29 6 5 4 7 -5 4 -8 -2
-14 -10 -13 -16 2 -6 -2 -11 -7 -11 -13 0 -13 17 0 25 7 4 6 13 -1 26 -6 12
-8 23 -5 27 3 3 6 0 6 -7 0 -7 4 -9 10 -6 6 3 7 -1 4 -9 -3 -9 -2 -16 3 -16
13 0 12 33 -1 42 -8 5 -7 8 2 8 6 0 12 5 12 11 0 5 -4 7 -10 4 -5 -3 -10 -1
-10 4 0 6 9 11 20 11 11 0 20 5 20 11 0 6 -7 8 -16 5 -8 -3 -12 -2 -9 3 3 5 1
12 -5 16 -15 9 -1 27 16 21 8 -3 14 -1 14 3 0 15 -27 20 -41 8 -11 -10 -11 -9
-1 4 6 9 8 20 4 25 -4 4 1 2 11 -5 14 -11 17 -11 17 0 0 8 4 7 13 -5 12 -16
13 -16 13 3 0 11 -5 17 -10 14 -5 -4 -7 2 -3 13 7 18 6 18 -7 1 -8 -10 -17
-14 -20 -8 -3 5 0 12 6 14 10 4 9 8 -2 17 -12 8 -8 9 15 5 30 -6 30 -6 6 8
-17 10 -20 16 -11 22 10 6 9 11 -4 20 -14 11 -14 14 -1 25 8 7 12 17 8 23 -3
5 -1 7 4 4 6 -4 14 0 17 9 5 12 1 14 -17 9 -17 -5 -19 -4 -7 4 12 9 12 11 1
11 -10 0 -8 5 6 18 11 9 18 23 15 31 -3 8 0 11 7 7 7 -5 9 -1 4 10 -5 14 -8
13 -20 -7 l-14 -24 7 25 c3 14 14 34 23 45 16 19 16 19 -14 0 -21 -13 -26 -14
-18 -3 17 20 4 31 -16 16 -12 -10 -12 -7 2 8 9 11 14 24 10 29 -5 4 -2 5 5 1
19 -11 14 15 -5 30 -13 10 -14 13 -3 9 10 -4 16 1 17 12 2 32 8 48 18 55 6 5
5 8 -2 8 -7 0 -10 7 -7 18 5 13 4 14 -4 3 -6 -8 -9 -23 -7 -33 2 -10 0 -18 -4
-18 -11 0 -7 78 4 88 5 4 4 0 0 -8 -8 -13 -7 -13 8 -1 20 16 22 22 6 18 -6 -1
-14 4 -17 12 -2 8 0 11 6 7 6 -3 14 -2 17 4 4 6 3 9 -2 8 -7 -3 -15 7 -12 15
6 19 6 36 -1 32 -4 -3 -15 6 -24 20 -10 15 -12 26 -5 30 7 5 6 11 -2 21 -10
12 -8 17 6 28 12 9 15 17 9 27 -5 8 -9 17 -10 22 -1 4 -2 8 -4 10 -1 1 -3 10
-5 20 -6 31 -13 30 -11 -2 0 -16 4 -27 8 -25 4 3 5 -5 3 -16 -2 -11 0 -18 6
-15 5 4 9 1 9 -4 0 -13 -10 -14 -30 -1 -12 8 -12 10 -1 10 9 0 10 4 4 13 -5 6
-9 19 -8 27 1 8 -3 23 -8 34 -6 13 -6 16 2 12 6 -4 11 -3 11 3 0 6 8 8 18 5
16 -5 16 -5 0 6 -9 6 -15 17 -12 25 4 8 1 15 -4 15 -6 0 -9 -8 -7 -18 2 -11
-3 -19 -11 -19 -10 0 -11 4 -3 13 7 8 6 14 -3 17 -10 4 -10 6 0 6 6 1 12 8 12
17 0 9 5 12 13 8 9 -6 9 -5 0 8 -7 8 -10 18 -6 22 4 4 -1 4 -11 0 -14 -5 -15
-9 -4 -16 10 -8 10 -9 -2 -5 -8 2 -16 9 -16 15 -1 7 -2 13 -4 15 -1 1 -3 20
-5 43 -1 22 -7 50 -13 61 -8 15 -8 23 1 33 7 8 8 11 1 7 -11 -6 -37 65 -37 99
0 8 -4 14 -7 14 -6 0 -18 36 -24 72 -1 3 -4 9 -8 13 -4 4 -4 13 -1 21 3 8 0
14 -6 14 -6 0 -11 6 -11 14 0 8 -9 36 -21 63 -11 26 -21 56 -22 65 -1 9 -5 14
-9 12 -4 -3 -8 0 -8 6 0 17 -117 247 -151 298 -16 24 -29 45 -29 48 0 10 -112
166 -179 249 -59 74 -267 288 -336 346 -286 239 -628 420 -974 515 -69 19
-137 36 -151 39 -14 2 -65 11 -115 19 -49 8 -106 18 -125 21 -40 7 -465 17
-471 11z m2781 -2442 c-6 -6 -7 -14 -3 -17 3 -4 4 -7 1 -7 -3 0 -12 8 -19 17
-12 14 -12 16 0 9 9 -6 12 -5 9 5 -3 8 -11 13 -17 11 -7 -1 -10 2 -6 8 4 6 13
5 25 -2 13 -8 16 -16 10 -24z m-10 -45 c0 -6 -4 -7 -10 -4 -5 3 -10 11 -10 16
0 6 5 7 10 4 6 -3 10 -11 10 -16z m-57 -814 c-3 -9 -8 -14 -10 -11 -3 3 -2 9
2 15 9 16 15 13 8 -4z m-18 -63 c-3 -3 -11 0 -18 7 -9 10 -8 11 6 5 10 -3 15
-9 12 -12z m-75 -206 c0 -2 -8 -10 -17 -17 -16 -13 -17 -12 -4 4 13 16 21 21
21 13z m10 -61 c-7 -9 -15 -13 -19 -10 -3 3 1 10 9 15 21 14 24 12 10 -5z
m-4591 -421 c-6 -8 -15 -12 -18 -8 -3 4 0 9 7 11 6 3 9 10 6 15 -4 7 -2 8 5 4
9 -6 9 -11 0 -22z m35 -2 c3 -5 -1 -9 -9 -9 -8 0 -12 4 -9 9 3 4 7 8 9 8 2 0
6 -4 9 -8z m4211 -22 c3 -5 1 -10 -4 -10 -6 0 -11 5 -11 10 0 6 2 10 4 10 3 0
8 -4 11 -10z m-4175 -75 c0 -2 -6 -5 -13 -8 -8 -3 -14 1 -14 8 0 7 6 11 14 8
7 -3 13 -6 13 -8z m4155 -94 c3 -5 2 -12 -3 -15 -5 -3 -9 1 -9 9 0 17 3 19 12
6z m-224 -138 c13 -16 12 -17 -3 -4 -17 13 -22 21 -14 21 2 0 10 -8 17 -17z
m120 -10 c-12 -20 -14 -14 -5 12 4 9 9 14 11 11 3 -2 0 -13 -6 -23z m-7 -31
c3 -5 -13 -26 -36 -48 -22 -21 -38 -34 -34 -27 3 6 3 13 -1 16 -5 2 -3 3 3 1
13 -3 45 32 37 39 -3 3 -12 3 -21 0 -14 -4 -15 -3 -2 5 8 6 17 9 21 6 4 -2 10
0 14 6 8 12 12 13 19 2z m-3833 -25 c-10 -9 -11 -8 -5 6 3 10 9 15 12 12 3 -3
0 -11 -7 -18z m69 -41 c0 -2 -8 -10 -17 -17 -16 -13 -17 -12 -4 4 13 16 21 21
21 13z m3605 -105 c3 -5 1 -12 -4 -15 -5 -3 -11 1 -15 9 -6 16 9 21 19 6z
m-45 -23 c0 -4 -4 -8 -9 -8 -6 0 -12 4 -15 8 -3 5 1 9 9 9 8 0 15 -4 15 -9z
m-309 -231 c-10 -9 -11 -8 -5 6 3 10 9 15 12 12 3 -3 0 -11 -7 -18z m-2741
-51 c-7 -7 -13 -7 -20 0 -6 6 -3 10 10 10 13 0 16 -4 10 -10z m2665 4 c-3 -5
-12 -10 -18 -10 -7 0 -6 4 3 10 19 12 23 12 15 0z m-157 -90 c-7 -10 -14 -17
-17 -15 -4 4 18 35 25 35 2 0 -1 -9 -8 -20z m-2208 -75 c11 -13 10 -14 -4 -9
-9 3 -16 10 -16 15 0 13 6 11 20 -6z m2087 -22 c-2 -2 -14 -5 -25 -8 -14 -2
-19 1 -16 10 3 7 14 11 25 8 11 -3 18 -7 16 -10z m-2034 -8 c8 0 10 -15 2 -15
-3 0 -9 0 -14 0 -5 0 -12 7 -15 16 -4 10 -2 13 7 7 6 -4 15 -8 20 -8z m1813
-62 c-10 -11 -19 -7 -22 10 -2 15 0 16 12 6 8 -6 12 -14 10 -16z m-36 0 c0 -5
-5 -15 -10 -23 -7 -12 -9 -10 -7 8 1 19 17 33 17 15z m-1560 -23 c0 -5 -2 -10
-4 -10 -3 0 -8 5 -11 10 -3 6 -1 10 4 10 6 0 11 -4 11 -10z m114 2 c3 -5 -1
-9 -9 -9 -8 0 -12 4 -9 9 3 4 7 8 9 8 2 0 6 -4 9 -8z m1360 -16 c-3 -7 -12
-13 -21 -13 -14 0 -14 1 1 12 8 7 12 16 8 20 -4 5 -2 5 5 1 7 -4 10 -12 7 -20z
m-1403 -19 c-10 -9 -11 -8 -5 6 3 10 9 15 12 12 3 -3 0 -11 -7 -18z m48 -10
c0 -9 -2 -8 -6 1 -2 6 -10 9 -15 6 -7 -4 -8 -2 -4 5 9 13 26 5 25 -12z m302 6
c13 -16 12 -17 -3 -4 -17 13 -22 21 -14 21 2 0 10 -8 17 -17z m962 10 c-7 -2
-19 -2 -25 0 -7 3 -2 5 12 5 14 0 19 -2 13 -5z m-168 -34 c-3 -12 -7 -24 -10
-27 -3 -3 -3 5 -1 19 6 30 5 29 10 29 3 0 3 -10 1 -21z m-180 -19 c3 -5 1 -10
-4 -10 -6 0 -11 5 -11 10 0 6 2 10 4 10 3 0 8 -4 11 -10z m60 -8 c-3 -3 -11 0
-18 7 -9 10 -8 11 6 5 10 -3 15 -9 12 -12z m-425 -36 c0 -11 -30 1 -39 16 -11
18 -11 18 14 2 14 -9 25 -17 25 -18z m20 18 c0 4 8 2 18 -3 13 -7 22 -7 29 0
6 6 10 5 10 -5 0 -14 -25 -14 -46 -2 -5 4 -11 2 -13 -4 -2 -6 -9 0 -17 12 -13
21 -13 22 2 9 10 -7 17 -10 17 -7z m216 0 c-1 -8 -6 -17 -12 -21 -5 -4 -6 -4
-2 1 4 5 3 14 -2 21 -7 8 -5 12 4 12 8 0 13 -6 12 -13z"/>
<path d="M5310 3650 c0 -5 5 -10 11 -10 5 0 7 5 4 10 -3 6 -8 10 -11 10 -2 0
-4 -4 -4 -10z"/>
<path d="M5350 3549 c0 -5 5 -7 10 -4 6 3 10 8 10 11 0 2 -4 4 -10 4 -5 0 -10
-5 -10 -11z"/>
<path d="M5371 3454 c0 -11 3 -14 6 -6 3 7 2 16 -1 19 -3 4 -6 -2 -5 -13z"/>
<path d="M5384 3374 c1 -13 5 -24 9 -24 4 0 10 0 13 0 4 0 1 6 -5 14 -9 11 -9
15 1 18 8 3 7 6 -3 10 -12 5 -15 0 -15 -18z"/>
<path d="M5450 3088 c6 -7 6 -16 0 -23 -7 -9 -5 -17 7 -26 16 -13 17 -12 5 3
-10 13 -10 17 0 21 10 3 9 9 -4 21 -10 9 -14 11 -8 4z"/>
<path d="M5480 2820 c-6 -11 -7 -20 -2 -20 6 0 12 9 15 20 3 11 3 20 1 20 -2
0 -8 -9 -14 -20z"/>
<path d="M5470 2786 c0 -2 7 -7 16 -10 8 -3 12 -2 9 4 -6 10 -25 14 -25 6z"/>
<path d="M5465 2730 c3 -5 12 -7 20 -3 21 7 19 13 -6 13 -11 0 -18 -4 -14 -10z"/>
<path d="M5475 2610 c-3 -5 -1 -10 4 -10 6 0 11 5 11 10 0 6 -2 10 -4 10 -3 0
-8 -4 -11 -10z"/>
<path d="M5465 2540 c-8 -13 3 -30 18 -29 9 0 9 2 0 6 -7 2 -13 9 -13 14 0 6
5 7 12 3 7 -4 8 -3 4 4 -9 15 -13 15 -21 2z"/>
<path d="M5470 2489 c0 -5 5 -7 10 -4 6 3 10 8 10 11 0 2 -4 4 -10 4 -5 0 -10
-5 -10 -11z"/>
<path d="M5447 2359 c7 -7 15 -10 18 -7 3 3 -2 9 -12 12 -14 6 -15 5 -6 -5z"/>
<path d="M394 2050 c0 -13 4 -16 10 -10 7 7 7 13 0 20 -6 6 -10 3 -10 -10z"/>
<path d="M5381 1991 c-7 -5 -9 -11 -5 -14 5 -3 15 1 22 9 14 16 5 18 -17 5z"/>
<path d="M446 1892 c-3 -5 1 -9 9 -9 8 0 12 4 9 9 -3 4 -7 8 -9 8 -2 0 -6 -4
-9 -8z"/>
<path d="M458 1863 c10 -4 10 -8 1 -19 -9 -11 -8 -15 5 -20 9 -4 20 -4 23 0 4
3 -1 6 -11 6 -9 0 -14 5 -11 10 4 6 12 7 18 3 7 -4 6 0 -2 10 -7 9 -19 17 -25
16 -6 0 -6 -3 2 -6z"/>
<path d="M5290 1730 c0 -5 5 -10 10 -10 6 0 10 5 10 10 0 6 -4 10 -10 10 -5 0
-10 -4 -10 -10z"/>
<path d="M530 1680 c0 -5 5 -10 11 -10 5 0 7 5 4 10 -3 6 -8 10 -11 10 -2 0
-4 -4 -4 -10z"/>
<path d="M5252 1655 c-7 -14 -16 -25 -22 -25 -6 0 -8 -5 -4 -11 5 -8 10 -7 16
4 5 10 16 14 26 11 14 -5 15 -4 2 5 -12 9 -13 12 -1 20 7 5 9 11 4 14 -6 4
-15 -5 -21 -18z"/>
<path d="M630 1490 c0 -5 5 -10 11 -10 5 0 7 5 4 10 -3 6 -8 10 -11 10 -2 0
-4 -4 -4 -10z"/>
<path d="M666 1422 c-3 -6 -1 -14 5 -17 15 -10 25 3 12 16 -7 7 -13 7 -17 1z"/>
<path d="M5146 1417 c3 -10 9 -15 12 -12 3 3 0 11 -7 18 -10 9 -11 8 -5 -6z"/>
<path d="M647 1389 c7 -7 15 -10 18 -7 3 3 -2 9 -12 12 -14 6 -15 5 -6 -5z"/>
<path d="M701 1341 c-9 -6 -10 -11 -2 -15 6 -4 11 -2 11 4 0 6 5 8 10 5 8 -5
7 -12 -2 -23 -12 -15 -11 -16 5 -3 13 10 15 17 6 27 -13 16 -11 16 -28 5z"/>
<path d="M5004 1219 c-3 -6 -3 -13 0 -16 3 -4 6 -1 6 5 0 6 7 9 15 6 8 -4 15
-4 15 -1 0 11 -30 16 -36 6z"/>
<path d="M4925 1110 c-3 -5 -1 -10 4 -10 6 0 11 5 11 10 0 6 -2 10 -4 10 -3 0
-8 -4 -11 -10z"/>
<path d="M871 1094 c0 -11 3 -14 6 -6 3 7 2 16 -1 19 -3 4 -6 -2 -5 -13z"/>
<path d="M4866 1017 c3 -10 9 -15 12 -12 3 3 0 11 -7 18 -10 9 -11 8 -5 -6z"/>
<path d="M4476 632 c-3 -5 1 -9 9 -9 8 0 12 4 9 9 -3 4 -7 8 -9 8 -2 0 -6 -4
-9 -8z"/>
<path d="M4380 604 c0 -2 9 -8 20 -14 15 -8 18 -8 14 3 -4 11 -34 21 -34 11z"/>
<path d="M4366 582 c-3 -4 4 -9 15 -9 23 -2 25 3 4 10 -8 4 -16 3 -19 -1z"/>
<path d="M1576 485 c-3 -8 -1 -15 4 -15 6 0 10 7 10 15 0 8 -2 15 -4 15 -2 0
-6 -7 -10 -15z"/>
<path d="M1634 449 c0 -10 4 -19 8 -19 4 0 8 6 8 14 0 8 -4 17 -8 20 -4 2 -8
-4 -8 -15z"/>
<path d="M1670 429 c-12 -8 -11 -9 5 -7 12 2 19 -2 18 -9 -2 -7 2 -13 7 -13
14 0 12 16 -3 28 -8 7 -18 8 -27 1z"/>
<path d="M3880 326 c0 -3 9 -10 20 -16 11 -6 20 -8 20 -6 0 3 -9 10 -20 16
-11 6 -20 8 -20 6z"/>
<path d="M1988 273 c6 -2 9 -10 6 -15 -4 -7 -2 -8 5 -4 13 9 5 26 -12 25 -9 0
-8 -2 1 -6z"/>
<path d="M3655 239 c-4 -6 -5 -12 -2 -15 2 -3 7 2 10 11 7 17 1 20 -8 4z"/>
<path d="M2070 236 c0 -2 7 -7 16 -10 8 -3 12 -2 9 4 -6 10 -25 14 -25 6z"/>
<path d="M3503 193 c4 -3 1 -13 -6 -22 -11 -14 -10 -14 5 -2 16 12 16 31 1 31
-4 0 -3 -3 0 -7z"/>
<path d="M2387 163 c4 -9 10 -10 24 -2 24 13 24 14 -5 14 -14 0 -22 -5 -19
-12z"/>
<path d="M3430 171 c0 -6 4 -13 10 -16 6 -3 7 1 4 9 -7 18 -14 21 -14 7z"/>
<path d="M3304 158 c-12 -19 -14 -39 -3 -32 5 3 7 9 4 14 -3 4 1 10 7 13 7 2
10 7 7 11 -4 4 -11 1 -15 -6z"/>
<path d="M3266 143 c-6 -14 -5 -15 5 -6 7 7 10 15 7 18 -3 3 -9 -2 -12 -12z"/>
<path d="M3087 144 c-8 -8 1 -24 12 -24 4 0 8 7 8 15 0 16 -9 20 -20 9z"/>
<path d="M2486 132 c-2 -4 4 -8 14 -8 10 0 16 4 14 8 -3 4 -9 8 -14 8 -5 0
-11 -4 -14 -8z"/>
<path d="M3005 131 c-3 -6 -10 -9 -14 -7 -4 3 -8 -1 -8 -8 0 -7 6 -13 13 -13
7 0 11 4 8 8 -2 4 2 9 8 12 7 2 10 7 7 11 -4 4 -10 2 -14 -3z"/>
<path d="M3070 110 c0 -5 5 -10 11 -10 5 0 7 5 4 10 -3 6 -8 10 -11 10 -2 0
-4 -4 -4 -10z"/>
</g>
</svg>
